<svg width="28" height="28" viewBox="0 0 28 28" fill="none" xmlns="http://www.w3.org/2000/svg">
<path d="M12.6667 15.3333V19.3333C12.6667 19.7111 12.7944 20.0278 13.05 20.2833C13.3055 20.5389 13.6222 20.6667 14 20.6667C14.3778 20.6667 14.6944 20.5389 14.95 20.2833C15.2055 20.0278 15.3333 19.7111 15.3333 19.3333V15.3333H19.3333C19.7111 15.3333 20.0278 15.2056 20.2833 14.95C20.5389 14.6944 20.6667 14.3778 20.6667 14C20.6667 13.6222 20.5389 13.3056 20.2833 13.05C20.0278 12.7944 19.7111 12.6667 19.3333 12.6667H15.3333V8.66667C15.3333 8.28889 15.2055 7.97223 14.95 7.71667C14.6944 7.46112 14.3778 7.33334 14 7.33334C13.6222 7.33334 13.3055 7.46112 13.05 7.71667C12.7944 7.97223 12.6667 8.28889 12.6667 8.66667V12.6667H8.66666C8.28888 12.6667 7.97221 12.7944 7.71666 13.05C7.4611 13.3056 7.33332 13.6222 7.33332 14C7.33332 14.3778 7.4611 14.6944 7.71666 14.95C7.97221 15.2056 8.28888 15.3333 8.66666 15.3333H12.6667ZM14 27.3333C12.1555 27.3333 10.4222 26.9833 8.79999 26.2833C7.17777 25.5833 5.76666 24.6333 4.56666 23.4333C3.36666 22.2333 2.41666 20.8222 1.71666 19.2C1.01666 17.5778 0.666656 15.8444 0.666656 14C0.666656 12.1556 1.01666 10.4222 1.71666 8.8C2.41666 7.17778 3.36666 5.76667 4.56666 4.56667C5.76666 3.36667 7.17777 2.41667 8.79999 1.71667C10.4222 1.01667 12.1555 0.666672 14 0.666672C15.8444 0.666672 17.5778 1.01667 19.2 1.71667C20.8222 2.41667 22.2333 3.36667 23.4333 4.56667C24.6333 5.76667 25.5833 7.17778 26.2833 8.8C26.9833 10.4222 27.3333 12.1556 27.3333 14C27.3333 15.8444 26.9833 17.5778 26.2833 19.2C25.5833 20.8222 24.6333 22.2333 23.4333 23.4333C22.2333 24.6333 20.8222 25.5833 19.2 26.2833C17.5778 26.9833 15.8444 27.3333 14 27.3333ZM14 24.6667C16.9778 24.6667 19.5 23.6333 21.5667 21.5667C23.6333 19.5 24.6667 16.9778 24.6667 14C24.6667 11.0222 23.6333 8.50001 21.5667 6.43334C19.5 4.36667 16.9778 3.33334 14 3.33334C11.0222 3.33334 8.49999 4.36667 6.43332 6.43334C4.36666 8.50001 3.33332 11.0222 3.33332 14C3.33332 16.9778 4.36666 19.5 6.43332 21.5667C8.49999 23.6333 11.0222 24.6667 14 24.6667Z" fill="white"/>
</svg>
