<svg width="420" height="90" viewBox="0 0 420 90" fill="none" xmlns="http://www.w3.org/2000/svg">
<path d="M90.6104 39.0829C83.5454 38.1152 77.4714 38.6822 72.354 39.9668C65.7067 41.636 60.8962 44.4772 58.0954 46.1302L57.7784 46.3177C56.8734 46.8509 56.0529 47.3504 55.2976 47.8111C51.0392 50.4053 48.7894 51.7757 44.8482 50.9518C43.1345 50.5936 41.9808 49.8428 40.122 47.2742C39.1726 45.9625 38.1966 44.3965 36.9153 42.337L36.6473 41.9078C35.2728 39.6995 33.642 37.103 31.6056 34.2056C26.3269 26.6939 18.8443 24.29 11.529 24.0433C9.42286 23.9722 7.25748 24.0791 5.09207 24.2945C12.6695 9.8606 27.9206 0 45.4999 0C68.6008 0 87.6806 17.0267 90.6104 39.0829Z" fill="#FCCE07"/>
<path d="M90.5684 51.2228C87.5042 73.1307 68.4939 90 45.4999 90C20.3709 90 0 69.8527 0 44.9999C0 42.2785 0.244256 39.6136 0.712268 37.0253C4.47722 36.3716 7.91459 35.9281 11.1155 36.0361C15.8664 36.1963 19.1797 37.55 21.6422 41.054C23.4765 43.6639 24.961 46.0235 26.3172 48.2011L26.6486 48.7337C27.8517 50.6678 29.0472 52.5896 30.2553 54.259C33.064 58.1398 36.5252 61.4775 42.3407 62.6926C51.433 64.5925 58.1124 60.342 62.3093 57.6714C62.9217 57.2815 63.4813 56.9256 63.9878 56.6271L64.1752 56.5167C66.8876 54.9175 70.4258 52.8316 75.3401 51.5977C79.31 50.6009 84.3332 50.1308 90.5684 51.2228Z" fill="black"/>
<path d="M90.5684 51.2228C90.8527 49.1888 91 47.1115 91 45.0001C91 42.9944 90.8674 41.0191 90.6104 39.0829C83.5454 38.1152 77.4714 38.6822 72.354 39.9668C65.7067 41.636 60.8962 44.4772 58.0954 46.1302L57.7784 46.3177C56.8734 46.8509 56.0529 47.3504 55.2976 47.8111C51.0392 50.4053 48.7894 51.7757 44.8482 50.9518C43.1345 50.5936 41.9808 49.8428 40.122 47.2742C39.1726 45.9625 38.1966 44.3965 36.9153 42.337L36.6473 41.9078C35.2728 39.6995 33.642 37.103 31.6056 34.2056C26.3269 26.6939 18.8443 24.29 11.529 24.0433C9.42286 23.9722 7.25748 24.0791 5.09207 24.2945C3.02441 28.2334 1.52825 32.5126 0.712268 37.0253C4.47722 36.3716 7.91459 35.9281 11.1155 36.0361C15.8664 36.1963 19.1797 37.55 21.6422 41.054C23.4765 43.6639 24.961 46.0235 26.3172 48.2011L26.6486 48.7337C27.8517 50.6678 29.0472 52.5896 30.2553 54.259C33.064 58.1398 36.5252 61.4775 42.3407 62.6926C51.433 64.5925 58.1124 60.342 62.3093 57.6714C62.9217 57.2815 63.4813 56.9256 63.9878 56.6271L64.1752 56.5167C66.8876 54.9175 70.4258 52.8316 75.3401 51.5977C79.31 50.6009 84.3332 50.1308 90.5684 51.2228Z" fill="white"/>
<path d="M134.52 57.36C132.528 57.36 130.68 57.108 128.976 56.604C127.272 56.076 125.832 55.368 124.656 54.48L126.06 50.844C127.236 51.684 128.52 52.332 129.912 52.788C131.328 53.244 132.864 53.472 134.52 53.472C136.416 53.472 137.796 53.16 138.66 52.536C139.524 51.888 139.956 51.06 139.956 50.052C139.956 49.212 139.644 48.552 139.02 48.072C138.42 47.592 137.376 47.196 135.888 46.884L131.928 46.056C127.416 45.096 125.16 42.78 125.16 39.108C125.16 37.524 125.58 36.144 126.42 34.968C127.26 33.792 128.424 32.88 129.912 32.232C131.4 31.584 133.116 31.26 135.06 31.26C136.788 31.26 138.408 31.524 139.92 32.052C141.432 32.556 142.692 33.276 143.7 34.212L142.296 37.668C140.304 35.988 137.88 35.148 135.024 35.148C133.368 35.148 132.072 35.496 131.136 36.192C130.2 36.888 129.732 37.8 129.732 38.928C129.732 39.792 130.02 40.488 130.596 41.016C131.172 41.52 132.156 41.916 133.548 42.204L137.472 43.032C139.848 43.536 141.612 44.328 142.764 45.408C143.94 46.488 144.528 47.928 144.528 49.728C144.528 51.24 144.12 52.572 143.304 53.724C142.488 54.876 141.324 55.776 139.812 56.424C138.324 57.048 136.56 57.36 134.52 57.36ZM148.483 57V31.62H159.499C162.283 31.62 164.431 32.316 165.943 33.708C167.455 35.1 168.211 37.044 168.211 39.54C168.211 42.036 167.455 43.992 165.943 45.408C164.431 46.8 162.283 47.496 159.499 47.496H153.091V57H148.483ZM153.091 43.86H158.779C162.091 43.86 163.747 42.42 163.747 39.54C163.747 36.684 162.091 35.256 158.779 35.256H153.091V43.86ZM171.967 57V31.62H183.055C185.719 31.62 187.783 32.208 189.247 33.384C190.711 34.536 191.443 36.144 191.443 38.208C191.443 39.576 191.095 40.752 190.399 41.736C189.703 42.72 188.743 43.44 187.519 43.896C188.959 44.304 190.075 45.024 190.867 46.056C191.683 47.064 192.091 48.348 192.091 49.908C192.091 52.164 191.323 53.916 189.787 55.164C188.275 56.388 186.163 57 183.451 57H171.967ZM176.395 42.384H182.263C185.407 42.384 186.979 41.172 186.979 38.748C186.979 36.324 185.407 35.112 182.263 35.112H176.395V42.384ZM176.395 53.508H182.875C186.043 53.508 187.627 52.236 187.627 49.692C187.627 47.148 186.043 45.876 182.875 45.876H176.395V53.508ZM212.576 57V35.472H203.864V31.62H225.896V35.472H217.184V57H212.576ZM225.57 57V39.396H229.962V42.492C230.826 40.404 232.674 39.252 235.506 39.036L236.874 38.928L237.162 42.744L234.57 42.996C231.618 43.284 230.142 44.796 230.142 47.532V57H225.57ZM245.288 57.36C244.016 57.36 242.876 57.12 241.868 56.64C240.884 56.136 240.104 55.464 239.528 54.624C238.976 53.784 238.7 52.836 238.7 51.78C238.7 50.484 239.036 49.464 239.708 48.72C240.38 47.952 241.472 47.4 242.984 47.064C244.496 46.728 246.524 46.56 249.068 46.56H250.328V45.804C250.328 44.604 250.064 43.74 249.536 43.212C249.008 42.684 248.12 42.42 246.872 42.42C245.888 42.42 244.88 42.576 243.848 42.888C242.816 43.176 241.772 43.632 240.716 44.256L239.42 41.196C240.044 40.764 240.776 40.392 241.616 40.08C242.48 39.744 243.38 39.492 244.316 39.324C245.276 39.132 246.176 39.036 247.016 39.036C249.584 39.036 251.492 39.636 252.74 40.836C253.988 42.012 254.612 43.848 254.612 46.344V57H250.4V54.192C249.992 55.176 249.344 55.956 248.456 56.532C247.568 57.084 246.512 57.36 245.288 57.36ZM246.224 54.264C247.4 54.264 248.372 53.856 249.14 53.04C249.932 52.224 250.328 51.192 250.328 49.944V49.152H249.104C246.848 49.152 245.276 49.332 244.388 49.692C243.524 50.028 243.092 50.652 243.092 51.564C243.092 52.356 243.368 53.004 243.92 53.508C244.472 54.012 245.24 54.264 246.224 54.264ZM264.188 57L256.556 39.396H261.344L266.24 51.708L271.316 39.396H275.816L268.076 57H264.188ZM286.313 57.36C284.321 57.36 282.605 56.988 281.165 56.244C279.725 55.5 278.609 54.444 277.817 53.076C277.049 51.708 276.665 50.088 276.665 48.216C276.665 46.392 277.037 44.796 277.781 43.428C278.549 42.06 279.593 40.992 280.913 40.224C282.257 39.432 283.781 39.036 285.485 39.036C287.981 39.036 289.949 39.828 291.389 41.412C292.853 42.996 293.585 45.156 293.585 47.892V49.224H280.985C281.321 52.368 283.121 53.94 286.385 53.94C287.369 53.94 288.353 53.796 289.337 53.508C290.321 53.196 291.221 52.716 292.037 52.068L293.297 55.092C292.457 55.788 291.401 56.34 290.129 56.748C288.857 57.156 287.585 57.36 286.313 57.36ZM285.665 42.096C284.345 42.096 283.277 42.504 282.461 43.32C281.645 44.136 281.153 45.24 280.985 46.632H289.841C289.745 45.168 289.337 44.052 288.617 43.284C287.921 42.492 286.937 42.096 285.665 42.096ZM303.269 57.36C301.181 57.36 299.633 56.796 298.625 55.668C297.641 54.516 297.149 52.836 297.149 50.628V31.62H301.649V50.412C301.649 52.572 302.561 53.652 304.385 53.652C304.649 53.652 304.913 53.64 305.177 53.616C305.441 53.592 305.693 53.544 305.933 53.472L305.861 57.036C304.997 57.252 304.133 57.36 303.269 57.36ZM330.984 57.36C328.176 57.36 325.8 56.832 323.856 55.776C321.936 54.72 320.472 53.22 319.464 51.276C318.456 49.332 317.952 47.028 317.952 44.364C317.952 41.676 318.468 39.36 319.5 37.416C320.532 35.448 322.02 33.936 323.964 32.88C325.908 31.8 328.236 31.26 330.948 31.26C332.724 31.26 334.392 31.524 335.952 32.052C337.512 32.556 338.808 33.264 339.84 34.176L338.292 37.776C337.164 36.888 336.012 36.252 334.836 35.868C333.66 35.484 332.364 35.292 330.948 35.292C328.26 35.292 326.22 36.072 324.828 37.632C323.46 39.192 322.776 41.436 322.776 44.364C322.776 47.316 323.484 49.56 324.9 51.096C326.316 52.632 328.416 53.4 331.2 53.4C331.992 53.4 332.796 53.34 333.612 53.22C334.452 53.076 335.28 52.872 336.096 52.608V46.704H330.264V43.284H339.948V55.488C338.772 56.064 337.38 56.52 335.772 56.856C334.164 57.192 332.568 57.36 330.984 57.36ZM344.856 57V39.396H349.248V42.492C350.112 40.404 351.96 39.252 354.792 39.036L356.16 38.928L356.448 42.744L353.856 42.996C350.904 43.284 349.428 44.796 349.428 47.532V57H344.856ZM366.7 57.36C364.876 57.36 363.292 56.988 361.948 56.244C360.604 55.5 359.56 54.444 358.816 53.076C358.072 51.684 357.7 50.052 357.7 48.18C357.7 46.308 358.072 44.688 358.816 43.32C359.56 41.952 360.604 40.896 361.948 40.152C363.292 39.408 364.876 39.036 366.7 39.036C368.524 39.036 370.108 39.408 371.452 40.152C372.796 40.896 373.84 41.952 374.584 43.32C375.328 44.688 375.7 46.308 375.7 48.18C375.7 50.052 375.328 51.684 374.584 53.076C373.84 54.444 372.796 55.5 371.452 56.244C370.108 56.988 368.524 57.36 366.7 57.36ZM366.7 53.94C368.044 53.94 369.124 53.46 369.94 52.5C370.756 51.516 371.164 50.076 371.164 48.18C371.164 46.26 370.756 44.832 369.94 43.896C369.124 42.936 368.044 42.456 366.7 42.456C365.356 42.456 364.276 42.936 363.46 43.896C362.644 44.832 362.236 46.26 362.236 48.18C362.236 50.076 362.644 51.516 363.46 52.5C364.276 53.46 365.356 53.94 366.7 53.94ZM385.786 57.36C381.466 57.36 379.306 54.936 379.306 50.088V39.396H383.806V50.16C383.806 51.408 384.058 52.332 384.562 52.932C385.066 53.532 385.87 53.832 386.974 53.832C388.174 53.832 389.158 53.424 389.926 52.608C390.694 51.768 391.078 50.664 391.078 49.296V39.396H395.578V57H391.186V54.372C390.01 56.364 388.21 57.36 385.786 57.36ZM400.262 63.48V39.396H404.654V42.204C405.158 41.244 405.914 40.476 406.922 39.9C407.954 39.324 409.118 39.036 410.414 39.036C411.95 39.036 413.294 39.408 414.446 40.152C415.622 40.896 416.534 41.952 417.182 43.32C417.83 44.664 418.154 46.284 418.154 48.18C418.154 50.052 417.83 51.684 417.182 53.076C416.534 54.444 415.634 55.5 414.482 56.244C413.33 56.988 411.974 57.36 410.414 57.36C409.166 57.36 408.038 57.096 407.03 56.568C406.046 56.016 405.29 55.284 404.762 54.372V63.48H400.262ZM409.154 53.94C410.498 53.94 411.578 53.46 412.394 52.5C413.21 51.516 413.618 50.076 413.618 48.18C413.618 46.26 413.21 44.832 412.394 43.896C411.578 42.936 410.498 42.456 409.154 42.456C407.81 42.456 406.73 42.936 405.914 43.896C405.098 44.832 404.69 46.26 404.69 48.18C404.69 50.076 405.098 51.516 405.914 52.5C406.73 53.46 407.81 53.94 409.154 53.94Z" fill="white"/>
</svg>
