<svg width="61" height="61" viewBox="0 0 61 61" fill="none" xmlns="http://www.w3.org/2000/svg">
<path class="yellow" d="M60.5977 26.1226C55.9395 25.4775 51.9346 25.8555 48.5605 26.7119C44.1777 27.8247 41.0059 29.7188 39.1592 30.8208L38.9502 30.9458C38.3535 31.3013 37.8125 31.6343 37.3145 31.9414C34.5068 33.6709 33.0234 34.5845 30.4248 34.0352C29.2949 33.7964 28.5342 33.2959 27.3086 31.5835C26.6826 30.709 26.0391 29.665 25.1943 28.292L25.0176 28.0059C24.1113 26.5337 23.0361 24.8027 21.6934 22.8711C18.2129 17.8633 13.2793 16.2607 8.45605 16.0962C7.06738 16.0488 5.63965 16.1201 4.21191 16.2637C9.20801 6.64111 19.2637 0.0673828 30.8545 0.0673828C46.0859 0.0673828 58.666 11.4185 60.5977 26.1226Z" fill="#FCCE07"/>
<path class="black" d="M60.57 34.2159C58.5497 48.8211 46.0154 60.0673 30.8545 60.0673C14.2859 60.0673 0.854492 46.6358 0.854492 30.0673C0.854492 28.253 1.01554 26.4764 1.32412 24.7509C3.80651 24.3151 6.07291 24.0194 8.18338 24.0914C11.3159 24.1982 13.5005 25.1007 15.1241 27.4367C16.3335 29.1766 17.3123 30.7497 18.2065 32.2014L18.425 32.5565C19.2183 33.8459 20.0065 35.1271 20.8031 36.24C22.655 38.8272 24.9371 41.0523 28.7715 41.8624C34.7664 43.129 39.1704 40.2953 41.9376 38.5149C42.3414 38.255 42.7104 38.0177 43.0443 37.8187L43.1679 37.7451C44.9563 36.679 47.2892 35.2884 50.5294 34.4658C53.1469 33.8013 56.4589 33.4879 60.57 34.2159Z" fill="black"/>
<path class="white" d="M60.57 34.2159C60.7575 32.8599 60.8546 31.475 60.8546 30.0674C60.8546 28.7303 60.7672 27.4134 60.5977 26.1226C55.9395 25.4775 51.9346 25.8555 48.5605 26.7119C44.1777 27.8247 41.0059 29.7188 39.1592 30.8208L38.9502 30.9458C38.3535 31.3013 37.8125 31.6343 37.3145 31.9414C34.5068 33.6709 33.0234 34.5845 30.4248 34.0352C29.2949 33.7964 28.5342 33.2959 27.3086 31.5835C26.6826 30.709 26.0391 29.665 25.1943 28.292L25.0176 28.0059C24.1113 26.5337 23.0361 24.8027 21.6934 22.8711C18.2129 17.8633 13.2793 16.2607 8.45605 16.0962C7.06738 16.0488 5.63965 16.1201 4.21191 16.2637C2.84861 18.8896 1.86213 21.7424 1.32412 24.7509C3.80651 24.3151 6.07291 24.0194 8.18338 24.0914C11.3159 24.1982 13.5005 25.1007 15.1241 27.4367C16.3335 29.1766 17.3123 30.7497 18.2065 32.2014L18.425 32.5565C19.2183 33.8459 20.0065 35.1271 20.8031 36.24C22.655 38.8272 24.9371 41.0523 28.7715 41.8624C34.7664 43.129 39.1704 40.2953 41.9376 38.5149C42.3414 38.255 42.7104 38.0177 43.0443 37.8187L43.1679 37.7451C44.9563 36.679 47.2892 35.2884 50.5294 34.4658C53.1469 33.8013 56.4589 33.4879 60.57 34.2159Z" fill="white"/>
</svg>
